<mxfile host="Electron" modified="2023-12-27T02:13:20.489Z" agent="Mozilla/5.0 (Macintosh; Intel Mac OS X 10_15_7) AppleWebKit/537.36 (KHTML, like Gecko) draw.io/21.2.1 Chrome/112.0.5615.87 Electron/24.1.2 Safari/537.36" etag="juh1Yq8J33GnUZOFdKY-" version="21.2.1" type="device">
  <diagram name="Page-1" id="bplvJv_79kS9nbsDukKv">
    <mxGraphModel dx="1405" dy="861" grid="1" gridSize="10" guides="1" tooltips="1" connect="1" arrows="1" fold="1" page="1" pageScale="1" pageWidth="1100" pageHeight="850" math="0" shadow="0">
      <root>
        <mxCell id="0" />
        <mxCell id="1" parent="0" />
        <mxCell id="_gqgBC7D3USFIdLBMYi9-2" value="" style="shape=mxgraph.signs.transportation.truck_4;html=1;pointerEvents=1;fillColor=#000000;strokeColor=none;verticalLabelPosition=bottom;verticalAlign=top;align=center;" parent="1" vertex="1">
          <mxGeometry x="80" y="610" width="99" height="33" as="geometry" />
        </mxCell>
        <mxCell id="_gqgBC7D3USFIdLBMYi9-1" value="" style="image;aspect=fixed;perimeter=ellipsePerimeter;html=1;align=center;shadow=0;dashed=0;fontColor=#4277BB;labelBackgroundColor=default;fontSize=12;spacingTop=3;image=img/lib/ibm/users/sensor.svg;" parent="1" vertex="1">
          <mxGeometry x="130" y="616.5" width="20" height="20" as="geometry" />
        </mxCell>
        <mxCell id="_gqgBC7D3USFIdLBMYi9-4" value="" style="shape=mxgraph.signs.transportation.truck_4;html=1;pointerEvents=1;fillColor=#000000;strokeColor=none;verticalLabelPosition=bottom;verticalAlign=top;align=center;" parent="1" vertex="1">
          <mxGeometry x="80" y="510" width="99" height="33" as="geometry" />
        </mxCell>
        <mxCell id="_gqgBC7D3USFIdLBMYi9-5" value="" style="image;aspect=fixed;perimeter=ellipsePerimeter;html=1;align=center;shadow=0;dashed=0;fontColor=#4277BB;labelBackgroundColor=default;fontSize=12;spacingTop=3;image=img/lib/ibm/users/sensor.svg;" parent="1" vertex="1">
          <mxGeometry x="130" y="516.5" width="20" height="20" as="geometry" />
        </mxCell>
        <mxCell id="_gqgBC7D3USFIdLBMYi9-6" value="" style="shape=mxgraph.signs.transportation.truck_4;html=1;pointerEvents=1;fillColor=#000000;strokeColor=none;verticalLabelPosition=bottom;verticalAlign=top;align=center;" parent="1" vertex="1">
          <mxGeometry x="80" y="409" width="99" height="33" as="geometry" />
        </mxCell>
        <mxCell id="_gqgBC7D3USFIdLBMYi9-7" value="" style="image;aspect=fixed;perimeter=ellipsePerimeter;html=1;align=center;shadow=0;dashed=0;fontColor=#4277BB;labelBackgroundColor=default;fontSize=12;spacingTop=3;image=img/lib/ibm/users/sensor.svg;" parent="1" vertex="1">
          <mxGeometry x="130" y="415.5" width="20" height="20" as="geometry" />
        </mxCell>
        <mxCell id="_gqgBC7D3USFIdLBMYi9-8" value="" style="shape=mxgraph.signs.transportation.truck_4;html=1;pointerEvents=1;fillColor=#000000;strokeColor=none;verticalLabelPosition=bottom;verticalAlign=top;align=center;" parent="1" vertex="1">
          <mxGeometry x="80" y="310" width="99" height="33" as="geometry" />
        </mxCell>
        <mxCell id="_gqgBC7D3USFIdLBMYi9-9" value="" style="image;aspect=fixed;perimeter=ellipsePerimeter;html=1;align=center;shadow=0;dashed=0;fontColor=#4277BB;labelBackgroundColor=default;fontSize=12;spacingTop=3;image=img/lib/ibm/users/sensor.svg;" parent="1" vertex="1">
          <mxGeometry x="130" y="316.5" width="20" height="20" as="geometry" />
        </mxCell>
        <mxCell id="_gqgBC7D3USFIdLBMYi9-10" value="Producer Script A" style="rounded=0;whiteSpace=wrap;html=1;" parent="1" vertex="1">
          <mxGeometry x="80" y="290" width="100" height="20" as="geometry" />
        </mxCell>
        <mxCell id="_gqgBC7D3USFIdLBMYi9-11" value="Producer Script B" style="rounded=0;whiteSpace=wrap;html=1;" parent="1" vertex="1">
          <mxGeometry x="79" y="389" width="100" height="20" as="geometry" />
        </mxCell>
        <mxCell id="_gqgBC7D3USFIdLBMYi9-12" value="Producer Script C" style="rounded=0;whiteSpace=wrap;html=1;" parent="1" vertex="1">
          <mxGeometry x="79" y="490" width="100" height="20" as="geometry" />
        </mxCell>
        <mxCell id="_gqgBC7D3USFIdLBMYi9-13" value="Producer Script D" style="rounded=0;whiteSpace=wrap;html=1;" parent="1" vertex="1">
          <mxGeometry x="80" y="590" width="100" height="20" as="geometry" />
        </mxCell>
        <mxCell id="_gqgBC7D3USFIdLBMYi9-14" value="" style="shape=image;verticalLabelPosition=bottom;labelBackgroundColor=default;verticalAlign=top;aspect=fixed;imageAspect=0;image=https://developers.redhat.com/blog/wp-content/uploads/2018/05/kafka-logo-tall.png;labelBorderColor=none;imageBorder=default;" parent="1" vertex="1">
          <mxGeometry x="360" y="425.05999999999995" width="84" height="91.44" as="geometry" />
        </mxCell>
        <mxCell id="_gqgBC7D3USFIdLBMYi9-39" value="" style="endArrow=classic;html=1;rounded=0;dashed=1;" parent="1" edge="1">
          <mxGeometry relative="1" as="geometry">
            <mxPoint x="180" y="320" as="sourcePoint" />
            <mxPoint x="350" y="450.5" as="targetPoint" />
          </mxGeometry>
        </mxCell>
        <mxCell id="_gqgBC7D3USFIdLBMYi9-40" value="&lt;font style=&quot;font-size: 12px;&quot;&gt;Data&lt;/font&gt;" style="edgeLabel;resizable=0;html=1;align=center;verticalAlign=middle;" parent="_gqgBC7D3USFIdLBMYi9-39" connectable="0" vertex="1">
          <mxGeometry relative="1" as="geometry" />
        </mxCell>
        <mxCell id="_gqgBC7D3USFIdLBMYi9-41" value="" style="endArrow=classic;html=1;rounded=0;dashed=1;" parent="1" edge="1">
          <mxGeometry relative="1" as="geometry">
            <mxPoint x="180" y="626" as="sourcePoint" />
            <mxPoint x="350" y="490" as="targetPoint" />
          </mxGeometry>
        </mxCell>
        <mxCell id="_gqgBC7D3USFIdLBMYi9-42" value="&lt;font style=&quot;font-size: 12px;&quot;&gt;Data&lt;/font&gt;" style="edgeLabel;resizable=0;html=1;align=center;verticalAlign=middle;" parent="_gqgBC7D3USFIdLBMYi9-41" connectable="0" vertex="1">
          <mxGeometry relative="1" as="geometry" />
        </mxCell>
        <mxCell id="_gqgBC7D3USFIdLBMYi9-43" value="" style="endArrow=classic;html=1;rounded=0;dashed=1;" parent="1" edge="1">
          <mxGeometry relative="1" as="geometry">
            <mxPoint x="179" y="415.5" as="sourcePoint" />
            <mxPoint x="350" y="460" as="targetPoint" />
          </mxGeometry>
        </mxCell>
        <mxCell id="_gqgBC7D3USFIdLBMYi9-44" value="&lt;font style=&quot;font-size: 12px;&quot;&gt;Data&lt;/font&gt;" style="edgeLabel;resizable=0;html=1;align=center;verticalAlign=middle;" parent="_gqgBC7D3USFIdLBMYi9-43" connectable="0" vertex="1">
          <mxGeometry relative="1" as="geometry" />
        </mxCell>
        <mxCell id="_gqgBC7D3USFIdLBMYi9-45" value="" style="endArrow=classic;html=1;rounded=0;dashed=1;" parent="1" edge="1">
          <mxGeometry relative="1" as="geometry">
            <mxPoint x="179" y="516.5" as="sourcePoint" />
            <mxPoint x="350" y="480" as="targetPoint" />
          </mxGeometry>
        </mxCell>
        <mxCell id="_gqgBC7D3USFIdLBMYi9-46" value="&lt;font style=&quot;font-size: 12px;&quot;&gt;Data&lt;/font&gt;" style="edgeLabel;resizable=0;html=1;align=center;verticalAlign=middle;" parent="_gqgBC7D3USFIdLBMYi9-45" connectable="0" vertex="1">
          <mxGeometry relative="1" as="geometry" />
        </mxCell>
        <mxCell id="_gqgBC7D3USFIdLBMYi9-47" value="Topics" style="rounded=0;whiteSpace=wrap;html=1;" parent="1" vertex="1">
          <mxGeometry x="370" y="395.5" width="60" height="20" as="geometry" />
        </mxCell>
        <mxCell id="_gqgBC7D3USFIdLBMYi9-50" value="Topics" style="shape=table;childLayout=tableLayout;startSize=17;collapsible=0;recursiveResize=0;expand=0;fontSize=11;" parent="1" vertex="1">
          <mxGeometry x="270" y="156" width="260" height="187" as="geometry" />
        </mxCell>
        <mxCell id="_gqgBC7D3USFIdLBMYi9-51" value="" style="shape=tableRow;horizontal=0;swimlaneHead=0;swimlaneBody=0;top=0;left=0;strokeColor=inherit;bottom=0;right=0;dropTarget=0;fontStyle=0;fillColor=none;points=[[0,0.5],[1,0.5]];portConstraint=eastwest;startSize=40;collapsible=0;recursiveResize=0;expand=0;fontSize=12;swimlaneFillColor=none;swimlaneLine=1;" parent="_gqgBC7D3USFIdLBMYi9-50" vertex="1">
          <mxGeometry y="17" width="260" height="16" as="geometry" />
        </mxCell>
        <mxCell id="_gqgBC7D3USFIdLBMYi9-52" value="Sensor 1" style="swimlane;swimlaneHead=0;swimlaneBody=0;fontStyle=0;strokeColor=inherit;connectable=0;fillColor=none;startSize=20;collapsible=0;recursiveResize=0;expand=0;fontSize=11;shadow=0;" parent="_gqgBC7D3USFIdLBMYi9-51" vertex="1">
          <mxGeometry x="40" width="71" height="16" as="geometry">
            <mxRectangle width="71" height="16" as="alternateBounds" />
          </mxGeometry>
        </mxCell>
        <mxCell id="_gqgBC7D3USFIdLBMYi9-53" value="Sensor 2" style="swimlane;swimlaneHead=0;swimlaneBody=0;fontStyle=0;strokeColor=inherit;connectable=0;fillColor=none;startSize=20;collapsible=0;recursiveResize=0;expand=0;fontSize=11;" parent="_gqgBC7D3USFIdLBMYi9-51" vertex="1">
          <mxGeometry x="111" width="78" height="16" as="geometry">
            <mxRectangle width="78" height="16" as="alternateBounds" />
          </mxGeometry>
        </mxCell>
        <mxCell id="_gqgBC7D3USFIdLBMYi9-54" value="Sensor 3" style="swimlane;swimlaneHead=0;swimlaneBody=0;fontStyle=0;strokeColor=inherit;connectable=0;fillColor=none;startSize=20;collapsible=0;recursiveResize=0;expand=0;fontSize=11;" parent="_gqgBC7D3USFIdLBMYi9-51" vertex="1">
          <mxGeometry x="189" width="71" height="16" as="geometry">
            <mxRectangle width="71" height="16" as="alternateBounds" />
          </mxGeometry>
        </mxCell>
        <mxCell id="_gqgBC7D3USFIdLBMYi9-55" value="Device&#xa;A" style="shape=tableRow;horizontal=0;swimlaneHead=0;swimlaneBody=0;top=0;left=0;strokeColor=inherit;bottom=0;right=0;dropTarget=0;fontStyle=0;fillColor=none;points=[[0,0.5],[1,0.5]];portConstraint=eastwest;startSize=40;collapsible=0;recursiveResize=0;expand=0;fontSize=11;" parent="_gqgBC7D3USFIdLBMYi9-50" vertex="1">
          <mxGeometry y="33" width="260" height="39" as="geometry" />
        </mxCell>
        <mxCell id="_gqgBC7D3USFIdLBMYi9-56" value="" style="swimlane;swimlaneHead=0;swimlaneBody=0;fontStyle=0;connectable=0;strokeColor=inherit;fillColor=none;startSize=0;collapsible=0;recursiveResize=0;expand=0;fontSize=16;" parent="_gqgBC7D3USFIdLBMYi9-55" vertex="1">
          <mxGeometry x="40" width="71" height="39" as="geometry">
            <mxRectangle width="71" height="39" as="alternateBounds" />
          </mxGeometry>
        </mxCell>
        <mxCell id="_gqgBC7D3USFIdLBMYi9-57" value="" style="swimlane;swimlaneHead=0;swimlaneBody=0;fontStyle=0;connectable=0;strokeColor=inherit;fillColor=none;startSize=0;collapsible=0;recursiveResize=0;expand=0;fontSize=16;" parent="_gqgBC7D3USFIdLBMYi9-55" vertex="1">
          <mxGeometry x="111" width="78" height="39" as="geometry">
            <mxRectangle width="78" height="39" as="alternateBounds" />
          </mxGeometry>
        </mxCell>
        <mxCell id="_gqgBC7D3USFIdLBMYi9-58" value="" style="swimlane;swimlaneHead=0;swimlaneBody=0;fontStyle=0;connectable=0;strokeColor=inherit;fillColor=none;startSize=0;collapsible=0;recursiveResize=0;expand=0;fontSize=16;" parent="_gqgBC7D3USFIdLBMYi9-55" vertex="1">
          <mxGeometry x="189" width="71" height="39" as="geometry">
            <mxRectangle width="71" height="39" as="alternateBounds" />
          </mxGeometry>
        </mxCell>
        <mxCell id="_gqgBC7D3USFIdLBMYi9-59" value="Device&#xa;B" style="shape=tableRow;horizontal=0;swimlaneHead=0;swimlaneBody=0;top=0;left=0;strokeColor=inherit;bottom=0;right=0;dropTarget=0;fontStyle=0;fillColor=none;points=[[0,0.5],[1,0.5]];portConstraint=eastwest;startSize=40;collapsible=0;recursiveResize=0;expand=0;fontSize=11;" parent="_gqgBC7D3USFIdLBMYi9-50" vertex="1">
          <mxGeometry y="72" width="260" height="38" as="geometry" />
        </mxCell>
        <mxCell id="_gqgBC7D3USFIdLBMYi9-60" value="" style="swimlane;swimlaneHead=0;swimlaneBody=0;fontStyle=0;connectable=0;strokeColor=inherit;fillColor=none;startSize=0;collapsible=0;recursiveResize=0;expand=0;fontSize=16;" parent="_gqgBC7D3USFIdLBMYi9-59" vertex="1">
          <mxGeometry x="40" width="71" height="38" as="geometry">
            <mxRectangle width="71" height="38" as="alternateBounds" />
          </mxGeometry>
        </mxCell>
        <mxCell id="_gqgBC7D3USFIdLBMYi9-61" value="" style="swimlane;swimlaneHead=0;swimlaneBody=0;fontStyle=0;connectable=0;strokeColor=inherit;fillColor=none;startSize=0;collapsible=0;recursiveResize=0;expand=0;fontSize=16;" parent="_gqgBC7D3USFIdLBMYi9-59" vertex="1">
          <mxGeometry x="111" width="78" height="38" as="geometry">
            <mxRectangle width="78" height="38" as="alternateBounds" />
          </mxGeometry>
        </mxCell>
        <mxCell id="_gqgBC7D3USFIdLBMYi9-62" value="" style="swimlane;swimlaneHead=0;swimlaneBody=0;fontStyle=0;connectable=0;strokeColor=inherit;fillColor=none;startSize=0;collapsible=0;recursiveResize=0;expand=0;fontSize=16;" parent="_gqgBC7D3USFIdLBMYi9-59" vertex="1">
          <mxGeometry x="189" width="71" height="38" as="geometry">
            <mxRectangle width="71" height="38" as="alternateBounds" />
          </mxGeometry>
        </mxCell>
        <mxCell id="_gqgBC7D3USFIdLBMYi9-84" value="Device&#xa;C" style="shape=tableRow;horizontal=0;swimlaneHead=0;swimlaneBody=0;top=0;left=0;strokeColor=inherit;bottom=0;right=0;dropTarget=0;fontStyle=0;fillColor=none;points=[[0,0.5],[1,0.5]];portConstraint=eastwest;startSize=40;collapsible=0;recursiveResize=0;expand=0;fontSize=11;" parent="_gqgBC7D3USFIdLBMYi9-50" vertex="1">
          <mxGeometry y="110" width="260" height="38" as="geometry" />
        </mxCell>
        <mxCell id="_gqgBC7D3USFIdLBMYi9-85" style="swimlane;swimlaneHead=0;swimlaneBody=0;fontStyle=0;connectable=0;strokeColor=inherit;fillColor=none;startSize=0;collapsible=0;recursiveResize=0;expand=0;fontSize=16;" parent="_gqgBC7D3USFIdLBMYi9-84" vertex="1">
          <mxGeometry x="40" width="71" height="38" as="geometry">
            <mxRectangle width="71" height="38" as="alternateBounds" />
          </mxGeometry>
        </mxCell>
        <mxCell id="_gqgBC7D3USFIdLBMYi9-86" style="swimlane;swimlaneHead=0;swimlaneBody=0;fontStyle=0;connectable=0;strokeColor=inherit;fillColor=none;startSize=0;collapsible=0;recursiveResize=0;expand=0;fontSize=16;" parent="_gqgBC7D3USFIdLBMYi9-84" vertex="1">
          <mxGeometry x="111" width="78" height="38" as="geometry">
            <mxRectangle width="78" height="38" as="alternateBounds" />
          </mxGeometry>
        </mxCell>
        <mxCell id="_gqgBC7D3USFIdLBMYi9-87" style="swimlane;swimlaneHead=0;swimlaneBody=0;fontStyle=0;connectable=0;strokeColor=inherit;fillColor=none;startSize=0;collapsible=0;recursiveResize=0;expand=0;fontSize=16;" parent="_gqgBC7D3USFIdLBMYi9-84" vertex="1">
          <mxGeometry x="189" width="71" height="38" as="geometry">
            <mxRectangle width="71" height="38" as="alternateBounds" />
          </mxGeometry>
        </mxCell>
        <mxCell id="_gqgBC7D3USFIdLBMYi9-88" value="Device&#xa;D" style="shape=tableRow;horizontal=0;swimlaneHead=0;swimlaneBody=0;top=0;left=0;strokeColor=inherit;bottom=0;right=0;dropTarget=0;fontStyle=0;fillColor=none;points=[[0,0.5],[1,0.5]];portConstraint=eastwest;startSize=40;collapsible=0;recursiveResize=0;expand=0;fontSize=11;" parent="_gqgBC7D3USFIdLBMYi9-50" vertex="1">
          <mxGeometry y="148" width="260" height="39" as="geometry" />
        </mxCell>
        <mxCell id="_gqgBC7D3USFIdLBMYi9-89" style="swimlane;swimlaneHead=0;swimlaneBody=0;fontStyle=0;connectable=0;strokeColor=inherit;fillColor=none;startSize=0;collapsible=0;recursiveResize=0;expand=0;fontSize=16;" parent="_gqgBC7D3USFIdLBMYi9-88" vertex="1">
          <mxGeometry x="40" width="71" height="39" as="geometry">
            <mxRectangle width="71" height="39" as="alternateBounds" />
          </mxGeometry>
        </mxCell>
        <mxCell id="_gqgBC7D3USFIdLBMYi9-90" style="swimlane;swimlaneHead=0;swimlaneBody=0;fontStyle=0;connectable=0;strokeColor=inherit;fillColor=none;startSize=0;collapsible=0;recursiveResize=0;expand=0;fontSize=16;" parent="_gqgBC7D3USFIdLBMYi9-88" vertex="1">
          <mxGeometry x="111" width="78" height="39" as="geometry">
            <mxRectangle width="78" height="39" as="alternateBounds" />
          </mxGeometry>
        </mxCell>
        <mxCell id="_gqgBC7D3USFIdLBMYi9-91" style="swimlane;swimlaneHead=0;swimlaneBody=0;fontStyle=0;connectable=0;strokeColor=inherit;fillColor=none;startSize=0;collapsible=0;recursiveResize=0;expand=0;fontSize=16;" parent="_gqgBC7D3USFIdLBMYi9-88" vertex="1">
          <mxGeometry x="189" width="71" height="39" as="geometry">
            <mxRectangle width="71" height="39" as="alternateBounds" />
          </mxGeometry>
        </mxCell>
        <mxCell id="_gqgBC7D3USFIdLBMYi9-99" value="" style="endArrow=none;dashed=1;html=1;rounded=0;entryX=1;entryY=1;entryDx=0;entryDy=0;" parent="1" target="_gqgBC7D3USFIdLBMYi9-50" edge="1">
          <mxGeometry width="50" height="50" relative="1" as="geometry">
            <mxPoint x="430" y="395.5" as="sourcePoint" />
            <mxPoint x="480" y="345.5" as="targetPoint" />
          </mxGeometry>
        </mxCell>
        <mxCell id="_gqgBC7D3USFIdLBMYi9-100" value="" style="endArrow=none;dashed=1;html=1;rounded=0;entryX=-0.004;entryY=1;entryDx=0;entryDy=0;entryPerimeter=0;" parent="1" target="_gqgBC7D3USFIdLBMYi9-88" edge="1">
          <mxGeometry width="50" height="50" relative="1" as="geometry">
            <mxPoint x="370" y="395.5" as="sourcePoint" />
            <mxPoint x="270" y="340" as="targetPoint" />
          </mxGeometry>
        </mxCell>
        <mxCell id="wZBNfe71tESW7mnI_Dh1-3" style="edgeStyle=orthogonalEdgeStyle;rounded=0;orthogonalLoop=1;jettySize=auto;html=1;entryX=0;entryY=0.5;entryDx=0;entryDy=0;entryPerimeter=0;" edge="1" parent="1" source="_gqgBC7D3USFIdLBMYi9-101" target="wZBNfe71tESW7mnI_Dh1-1">
          <mxGeometry relative="1" as="geometry" />
        </mxCell>
        <mxCell id="_gqgBC7D3USFIdLBMYi9-101" value="" style="shape=image;verticalLabelPosition=bottom;labelBackgroundColor=default;verticalAlign=top;aspect=fixed;imageAspect=0;image=https://th.bing.com/th/id/R.0e23481b805fa66eb9ff0c177ff27030?rik=00LN9yVT3nMAyw&amp;riu=http%3a%2f%2fpluspng.com%2fimg-png%2flogo-mongodb-png-mongodb-1600.png&amp;ehk=YwJU48GqAzZ6V3Zlafc4pyilw%2biV5XBxEO7chpNV3M8%3d&amp;risl=&amp;pid=ImgRaw&amp;r=0;" parent="1" vertex="1">
          <mxGeometry x="590" y="418.28" width="105" height="105" as="geometry" />
        </mxCell>
        <mxCell id="_gqgBC7D3USFIdLBMYi9-103" value="" style="endArrow=classic;html=1;rounded=0;dashed=1;entryX=0;entryY=0.5;entryDx=0;entryDy=0;" parent="1" edge="1" target="_gqgBC7D3USFIdLBMYi9-101">
          <mxGeometry width="50" height="50" relative="1" as="geometry">
            <mxPoint x="460" y="470.34" as="sourcePoint" />
            <mxPoint x="560" y="470" as="targetPoint" />
          </mxGeometry>
        </mxCell>
        <mxCell id="wZBNfe71tESW7mnI_Dh1-4" style="edgeStyle=orthogonalEdgeStyle;rounded=0;orthogonalLoop=1;jettySize=auto;html=1;entryX=0.5;entryY=1;entryDx=0;entryDy=0;entryPerimeter=0;" edge="1" parent="1" source="wZBNfe71tESW7mnI_Dh1-1" target="wZBNfe71tESW7mnI_Dh1-2">
          <mxGeometry relative="1" as="geometry" />
        </mxCell>
        <mxCell id="wZBNfe71tESW7mnI_Dh1-21" style="edgeStyle=orthogonalEdgeStyle;rounded=0;orthogonalLoop=1;jettySize=auto;html=1;" edge="1" parent="1" source="wZBNfe71tESW7mnI_Dh1-1" target="wZBNfe71tESW7mnI_Dh1-19">
          <mxGeometry relative="1" as="geometry" />
        </mxCell>
        <mxCell id="wZBNfe71tESW7mnI_Dh1-1" value="" style="sketch=0;points=[[0,0,0],[0.25,0,0],[0.5,0,0],[0.75,0,0],[1,0,0],[0,1,0],[0.25,1,0],[0.5,1,0],[0.75,1,0],[1,1,0],[0,0.25,0],[0,0.5,0],[0,0.75,0],[1,0.25,0],[1,0.5,0],[1,0.75,0]];outlineConnect=0;fontColor=#232F3E;gradientColor=#F78E04;gradientDirection=north;fillColor=#D05C17;strokeColor=#ffffff;dashed=0;verticalLabelPosition=bottom;verticalAlign=top;align=center;html=1;fontSize=12;fontStyle=0;aspect=fixed;shape=mxgraph.aws4.resourceIcon;resIcon=mxgraph.aws4.ec2;" vertex="1" parent="1">
          <mxGeometry x="770" y="431.78" width="78" height="78" as="geometry" />
        </mxCell>
        <mxCell id="wZBNfe71tESW7mnI_Dh1-6" style="edgeStyle=orthogonalEdgeStyle;rounded=0;orthogonalLoop=1;jettySize=auto;html=1;entryX=0.5;entryY=0;entryDx=0;entryDy=0;entryPerimeter=0;" edge="1" parent="1" source="wZBNfe71tESW7mnI_Dh1-2" target="wZBNfe71tESW7mnI_Dh1-1">
          <mxGeometry relative="1" as="geometry" />
        </mxCell>
        <mxCell id="wZBNfe71tESW7mnI_Dh1-7" value="&lt;font style=&quot;font-size: 12px;&quot;&gt;Registry&lt;/font&gt;" style="edgeLabel;html=1;align=center;verticalAlign=middle;resizable=0;points=[];" vertex="1" connectable="0" parent="wZBNfe71tESW7mnI_Dh1-6">
          <mxGeometry x="0.0137" y="3" relative="1" as="geometry">
            <mxPoint as="offset" />
          </mxGeometry>
        </mxCell>
        <mxCell id="wZBNfe71tESW7mnI_Dh1-2" value="" style="sketch=0;points=[[0,0,0],[0.25,0,0],[0.5,0,0],[0.75,0,0],[1,0,0],[0,1,0],[0.25,1,0],[0.5,1,0],[0.75,1,0],[1,1,0],[0,0.25,0],[0,0.5,0],[0,0.75,0],[1,0.25,0],[1,0.5,0],[1,0.75,0]];outlineConnect=0;fontColor=#232F3E;gradientColor=#60A337;gradientDirection=north;fillColor=#277116;strokeColor=#ffffff;dashed=0;verticalLabelPosition=bottom;verticalAlign=top;align=center;html=1;fontSize=12;fontStyle=0;aspect=fixed;shape=mxgraph.aws4.resourceIcon;resIcon=mxgraph.aws4.s3;" vertex="1" parent="1">
          <mxGeometry x="770" y="265" width="78" height="78" as="geometry" />
        </mxCell>
        <mxCell id="wZBNfe71tESW7mnI_Dh1-15" style="edgeStyle=orthogonalEdgeStyle;rounded=0;orthogonalLoop=1;jettySize=auto;html=1;" edge="1" parent="1" source="wZBNfe71tESW7mnI_Dh1-9" target="wZBNfe71tESW7mnI_Dh1-19">
          <mxGeometry relative="1" as="geometry">
            <mxPoint x="1000" y="470" as="targetPoint" />
            <Array as="points">
              <mxPoint x="1030" y="385" />
              <mxPoint x="1030" y="470" />
            </Array>
          </mxGeometry>
        </mxCell>
        <mxCell id="wZBNfe71tESW7mnI_Dh1-9" value="&lt;font style=&quot;font-size: 24px;&quot;&gt;/train&lt;/font&gt;" style="rounded=0;whiteSpace=wrap;html=1;" vertex="1" parent="1">
          <mxGeometry x="1060" y="354.91999999999996" width="120" height="60" as="geometry" />
        </mxCell>
        <mxCell id="wZBNfe71tESW7mnI_Dh1-14" style="edgeStyle=orthogonalEdgeStyle;rounded=0;orthogonalLoop=1;jettySize=auto;html=1;" edge="1" parent="1" source="wZBNfe71tESW7mnI_Dh1-11" target="wZBNfe71tESW7mnI_Dh1-19">
          <mxGeometry relative="1" as="geometry">
            <mxPoint x="1001.3600000000001" y="469.31999999999994" as="targetPoint" />
            <Array as="points">
              <mxPoint x="1030" y="557" />
              <mxPoint x="1030" y="470" />
            </Array>
          </mxGeometry>
        </mxCell>
        <mxCell id="wZBNfe71tESW7mnI_Dh1-11" value="&lt;font style=&quot;font-size: 24px;&quot;&gt;/predict&lt;/font&gt;" style="rounded=0;whiteSpace=wrap;html=1;" vertex="1" parent="1">
          <mxGeometry x="1060" y="526.64" width="120" height="60" as="geometry" />
        </mxCell>
        <mxCell id="wZBNfe71tESW7mnI_Dh1-18" value="Endpoint" style="text;html=1;align=center;verticalAlign=middle;resizable=0;points=[];autosize=1;strokeColor=none;fillColor=none;" vertex="1" parent="1">
          <mxGeometry x="931.11" y="496.64" width="70" height="30" as="geometry" />
        </mxCell>
        <mxCell id="wZBNfe71tESW7mnI_Dh1-19" value="" style="sketch=0;outlineConnect=0;fontColor=#232F3E;gradientColor=none;fillColor=#4D27AA;strokeColor=none;dashed=0;verticalLabelPosition=bottom;verticalAlign=top;align=center;html=1;fontSize=12;fontStyle=0;aspect=fixed;pointerEvents=1;shape=mxgraph.aws4.endpoint;" vertex="1" parent="1">
          <mxGeometry x="937.11" y="441.78" width="58" height="58" as="geometry" />
        </mxCell>
      </root>
    </mxGraphModel>
  </diagram>
</mxfile>
